<?xml version="1.0" encoding="UTF-8" ?>
<!DOCTYPE svg PUBLIC "-//W3C//DTD SVG 1.1//EN" "http://www.w3.org/Graphics/SVG/1.1/DTD/svg11.dtd">
<svg width="574.898664615" height="173.943698525" viewBox="0 0 585 177" version="1.1" xmlns="http://www.w3.org/2000/svg">
<g id="#ffffffff">
</g>
<g id="#604894ff">
<path fill="#604894" opacity="1.00" d=" M 100.65 3.78 C 110.41 2.44 120.28 3.15 130.10 3.04 C 135.27 2.92 140.28 6.73 141.07 11.93 C 142.56 18.46 136.72 25.25 130.04 24.73 C 116.53 24.01 102.37 23.34 89.60 28.58 C 80.06 32.59 74.19 42.27 72.49 52.18 C 70.91 57.89 72.06 65.57 65.98 68.89 C 59.34 73.32 49.28 68.01 49.46 59.98 C 50.75 45.18 55.26 29.82 66.03 19.07 C 75.16 9.82 87.97 5.31 100.65 3.78 Z" />
</g>
<g id="#2079b5ff">
<path fill="#2079b5" opacity="1.00" d=" M 30.42 10.52 C 36.07 8.54 42.75 12.24 44.20 18.02 C 45.60 22.99 42.51 27.55 41.23 32.18 C 37.32 43.97 33.41 56.89 36.86 69.26 C 40.06 80.12 50.26 86.65 60.12 90.84 C 65.27 92.50 68.79 98.17 67.48 103.53 C 66.32 109.55 59.42 113.60 53.61 111.48 C 40.80 106.10 28.29 98.21 20.98 86.03 C 14.22 74.99 12.87 61.41 14.88 48.81 C 16.37 38.01 19.98 27.67 23.43 17.37 C 24.45 14.08 27.15 11.52 30.42 10.52 Z" />
</g>
<g id="#818285ff">
<path fill="#818285" opacity="1.00" d=" M 201.42 32.54 C 206.12 30.88 212.20 31.41 215.58 35.44 C 220.16 41.33 220.06 50.19 216.48 56.54 C 213.00 62.17 204.71 62.95 199.39 59.64 C 194.68 56.04 193.23 49.54 193.95 43.91 C 194.46 39.26 196.87 34.37 201.42 32.54 M 205.35 36.49 C 203.67 36.78 202.21 37.95 201.68 39.59 C 200.09 44.01 200.14 48.98 201.48 53.45 C 202.52 57.72 209.50 58.06 210.94 53.93 C 212.49 49.88 212.19 45.33 211.61 41.12 C 211.33 38.16 208.28 35.72 205.35 36.49 Z" />
<path fill="#818285" opacity="1.00" d=" M 226.41 34.44 C 230.66 30.58 237.20 30.71 242.08 33.26 C 241.60 34.94 240.74 36.47 239.36 37.57 C 236.68 36.18 233.15 35.51 230.74 37.81 C 228.07 40.83 228.43 45.24 228.53 49.00 C 228.58 52.09 229.95 55.82 233.31 56.58 C 235.68 57.34 237.91 56.14 240.01 55.20 C 241.03 56.13 243.09 57.73 242.39 59.25 C 236.32 63.62 226.31 61.86 223.17 54.70 C 220.38 48.19 221.02 39.47 226.41 34.44 Z" />
<path fill="#818285" opacity="1.00" d=" M 246.80 32.01 C 248.86 32.00 250.92 31.99 252.99 31.99 C 253.03 40.00 252.98 48.00 253.01 56.00 C 256.43 55.99 259.85 55.99 263.27 56.03 C 262.93 57.70 262.55 59.36 262.12 61.01 C 257.01 60.99 251.91 61.02 246.80 60.99 C 246.70 51.33 246.70 41.67 246.80 32.01 Z" />
<path fill="#818285" opacity="1.00" d=" M 266.66 37.58 C 270.12 31.08 279.05 29.85 285.08 33.35 C 284.34 34.91 283.38 36.36 282.31 37.72 C 280.18 36.77 277.78 35.58 275.44 36.63 C 271.72 38.00 271.31 42.56 271.23 45.96 C 271.31 49.31 271.20 53.56 274.27 55.74 C 276.93 57.66 280.43 56.68 282.97 55.03 C 283.88 56.35 285.68 57.77 284.80 59.56 C 280.52 62.19 274.63 62.31 270.34 59.67 C 263.35 54.91 263.00 44.52 266.66 37.58 Z" />
</g>
<g id="#a9306fff">
<path fill="#a9306f" opacity="1.00" d=" M 104.61 37.75 C 119.88 34.85 136.86 36.80 149.40 46.60 C 162.85 57.01 169.80 73.30 174.74 89.10 C 176.07 94.01 179.27 99.09 177.28 104.28 C 175.29 110.32 167.54 113.37 162.01 110.16 C 159.15 108.76 157.21 105.99 156.45 102.95 C 153.25 91.56 149.64 79.99 142.69 70.25 C 138.94 64.91 133.43 60.74 127.09 59.05 C 119.45 56.98 111.41 58.13 103.81 59.79 C 98.65 61.32 92.45 58.41 90.73 53.22 C 89.03 48.97 90.56 43.88 93.99 40.97 C 96.98 38.54 100.99 38.43 104.61 37.75 Z" />
</g>
<g id="#231f20ff">
<path fill="#231f20" opacity="1.00" d=" M 363.32 71.52 C 366.15 70.97 368.97 70.42 371.82 70.01 C 372.49 73.65 373.02 77.34 373.01 81.05 C 372.99 99.03 373.01 117.01 372.99 134.99 C 372.70 137.53 373.58 141.22 376.98 140.19 C 377.56 141.97 378.14 143.75 378.77 145.52 C 375.19 147.41 370.41 147.34 367.17 144.77 C 364.96 142.87 364.53 139.77 364.50 137.02 C 364.50 122.00 364.50 106.98 364.50 91.96 C 364.39 85.13 365.03 78.21 363.32 71.52 Z" />
<path fill="#231f20" opacity="1.00" d=" M 417.25 69.68 C 420.10 70.07 422.94 70.55 425.78 71.09 C 425.70 91.40 425.78 111.72 425.74 132.03 C 425.74 136.64 425.95 141.32 427.29 145.76 C 424.37 145.76 421.46 145.76 418.55 145.69 C 418.20 144.15 417.87 142.60 417.57 141.06 C 409.18 149.71 392.70 147.94 386.67 137.39 C 382.55 130.41 382.23 121.89 383.08 114.02 C 383.97 106.29 388.19 98.71 395.16 94.93 C 402.33 90.84 411.86 92.84 417.47 98.69 C 417.03 89.03 417.34 79.35 417.25 69.68 M 401.24 100.27 C 394.46 102.60 391.98 110.51 391.95 117.03 C 391.99 122.62 391.39 128.70 394.19 133.77 C 398.83 142.42 413.30 140.49 417.19 132.18 C 417.25 123.10 417.39 114.01 417.12 104.94 C 413.61 100.10 406.75 98.85 401.24 100.27 Z" />
<path fill="#231f20" opacity="1.00" d=" M 450.21 78.27 C 460.14 71.07 474.58 71.87 484.23 79.17 C 482.70 81.02 481.18 82.88 479.75 84.81 C 475.50 82.52 471.03 80.10 466.02 80.46 C 458.80 80.02 452.09 84.65 449.12 91.10 C 445.02 99.05 445.33 108.27 445.56 116.96 C 446.00 125.17 449.95 133.84 457.64 137.58 C 465.07 141.34 474.17 139.81 480.80 135.07 C 482.34 137.06 483.91 139.02 485.46 140.99 C 478.86 145.31 470.82 147.37 462.96 146.78 C 454.20 146.15 445.95 140.98 441.46 133.45 C 436.71 125.57 435.50 116.06 435.95 107.02 C 436.55 96.11 441.03 84.72 450.21 78.27 Z" />
<path fill="#231f20" opacity="1.00" d=" M 198.65 74.25 C 201.76 74.25 204.87 74.26 207.97 74.23 C 212.33 94.83 217.64 115.27 220.65 136.13 C 220.90 135.39 221.13 134.65 221.34 133.90 C 225.15 113.93 229.92 94.15 234.22 74.27 C 237.50 74.25 240.78 74.27 244.07 74.20 C 248.70 94.79 253.72 115.32 257.50 136.09 C 261.47 115.41 266.13 94.87 270.42 74.26 C 273.38 74.25 276.34 74.25 279.31 74.24 C 273.82 98.08 268.38 121.94 262.88 145.78 C 259.09 145.73 255.29 145.76 251.50 145.74 C 247.39 126.49 242.51 107.41 239.14 88.01 C 237.88 90.98 237.94 94.33 237.17 97.44 C 233.89 113.58 230.23 129.64 226.77 145.74 C 223.00 145.75 219.23 145.77 215.46 145.71 C 209.94 121.88 204.10 98.11 198.65 74.25 Z" />
<path fill="#231f20" opacity="1.00" d=" M 573.67 78.78 C 576.48 78.57 579.22 80.04 580.92 82.24 C 581.00 84.59 580.77 86.94 580.96 89.29 C 581.51 92.22 578.23 93.93 575.86 94.56 C 571.24 95.73 566.06 91.86 566.22 87.01 C 565.86 82.79 569.48 78.96 573.67 78.78 M 572.47 80.44 C 567.27 81.74 566.31 89.68 570.88 92.32 C 574.80 95.09 580.86 91.68 580.32 86.83 C 580.73 82.68 576.42 79.23 572.47 80.44 Z" />
<path fill="#231f20" opacity="1.00" d=" M 543.34 80.63 C 546.25 80.04 549.15 79.37 552.06 78.75 C 551.58 83.75 551.02 88.76 551.02 93.79 C 555.39 93.72 559.76 93.74 564.14 93.76 C 563.27 95.87 562.42 97.98 561.63 100.11 C 557.97 100.49 554.27 99.93 550.63 100.51 C 550.94 112.02 550.62 123.55 550.78 135.07 C 550.86 137.03 551.45 139.42 553.47 140.26 C 556.38 141.56 559.60 140.82 562.55 140.04 C 562.90 141.76 563.27 143.49 563.68 145.21 C 558.51 148.01 551.77 148.37 546.56 145.48 C 543.34 143.53 542.39 139.55 542.49 136.03 C 542.56 124.14 542.40 112.25 542.57 100.36 C 540.30 100.25 538.02 100.22 535.75 100.24 C 535.74 98.08 535.74 95.92 535.75 93.76 C 538.00 93.75 540.25 93.75 542.51 93.71 C 542.45 89.33 542.81 84.97 543.34 80.63 Z" />
<path fill="#231f20" opacity="1.00" d=" M 571.76 82.19 C 573.40 82.46 575.58 81.70 576.79 83.24 C 577.78 84.66 576.98 86.75 575.43 87.43 C 576.20 88.76 577.35 89.99 577.45 91.62 C 575.22 91.10 574.73 88.61 573.08 87.35 C 573.05 88.34 573.00 90.31 572.97 91.29 L 571.75 91.21 C 571.74 88.20 571.74 85.20 571.76 82.19 M 573.34 83.96 C 572.81 85.65 573.37 86.23 575.00 85.72 C 575.50 84.08 574.95 83.50 573.34 83.96 Z" />
<path fill="#231f20" opacity="1.00" d=" M 297.50 92.73 C 304.60 91.27 312.74 92.68 317.95 98.03 C 322.59 102.43 324.68 108.86 325.21 115.10 C 325.99 122.85 325.36 131.23 321.05 137.94 C 313.44 150.18 292.70 150.27 285.10 137.95 C 280.00 129.52 279.62 118.94 281.65 109.52 C 283.35 101.62 289.29 94.28 297.50 92.73 M 299.42 99.51 C 294.72 100.42 291.32 104.46 290.54 109.07 C 289.15 116.68 289.32 124.74 291.61 132.16 C 294.00 140.93 307.47 142.89 312.64 135.64 C 315.74 131.08 316.01 125.30 315.99 119.98 C 315.72 114.89 315.68 109.47 313.08 104.91 C 310.44 100.27 304.50 98.09 299.42 99.51 Z" />
<path fill="#231f20" opacity="1.00" d=" M 341.28 100.15 C 345.50 95.16 351.85 90.94 358.69 92.55 C 357.72 95.55 356.69 98.53 355.46 101.43 C 349.55 100.72 342.50 104.22 341.55 110.55 C 341.41 122.28 341.56 134.03 341.48 145.77 C 338.66 145.74 335.84 145.74 333.02 145.77 C 332.97 132.17 333.01 118.56 333.01 104.96 C 333.03 101.41 332.30 97.93 331.28 94.55 C 334.00 93.86 336.72 93.16 339.40 92.31 C 340.90 94.64 341.19 97.45 341.28 100.15 Z" />
<path fill="#231f20" opacity="1.00" d=" M 491.74 99.36 C 499.41 94.41 508.69 91.39 517.86 92.76 C 521.86 93.36 525.85 95.61 527.67 99.35 C 529.09 102.01 529.29 105.08 529.46 108.03 C 529.45 117.41 528.62 126.81 529.17 136.19 C 529.26 138.76 531.31 140.37 532.98 141.98 C 531.72 144.00 530.26 145.87 528.93 147.84 C 525.45 146.77 522.78 143.93 521.66 140.49 C 518.57 143.17 515.26 145.99 511.10 146.70 C 505.08 147.61 498.06 147.08 493.59 142.46 C 487.83 135.82 489.04 124.41 496.14 119.17 C 503.15 113.90 512.42 113.25 520.88 113.57 C 520.84 110.06 521.68 106.24 520.10 102.96 C 518.01 99.56 513.51 98.81 509.87 99.52 C 504.83 100.28 500.05 102.40 495.98 105.46 C 494.50 103.46 493.10 101.42 491.74 99.36 M 501.34 124.36 C 498.38 128.73 498.22 135.98 502.70 139.41 C 508.90 142.98 517.23 139.36 520.29 133.25 C 521.21 128.69 520.52 123.98 520.82 119.36 C 514.20 119.15 506.07 118.85 501.34 124.36 Z" />
</g>
<g id="#f58220ff">
<path fill="#f58220" opacity="1.00" d=" M 119.45 74.38 C 123.79 73.10 128.99 74.52 131.57 78.38 C 139.28 91.32 145.04 106.50 142.39 121.78 C 139.88 137.74 128.70 150.63 116.48 160.42 C 111.42 164.39 106.25 168.22 101.00 171.92 C 96.53 175.40 89.33 174.67 85.80 170.18 C 81.97 165.69 82.87 158.02 87.74 154.64 C 99.65 146.37 112.83 138.05 119.33 124.54 C 124.59 113.11 119.69 100.43 113.62 90.40 C 109.77 84.79 112.93 76.24 119.45 74.38 Z" />
</g>
<g id="#3e9a3cff">
<path fill="#3e9a3c" opacity="1.00" d=" M 7.22 105.44 C 10.82 103.88 15.24 104.35 18.35 106.78 C 28.88 114.70 39.88 122.88 52.92 125.97 C 62.59 128.28 72.70 124.39 79.70 117.68 C 82.60 115.26 85.02 112.36 87.54 109.57 C 91.48 104.94 99.42 105.08 103.43 109.54 C 107.02 113.35 107.34 119.91 103.82 123.86 C 95.69 132.87 86.33 141.41 74.62 145.34 C 61.86 150.07 47.52 148.19 35.32 142.70 C 24.57 138.05 15.04 131.16 5.59 124.35 C 2.50 122.26 0.79 118.58 0.39 114.97 C 1.34 111.10 3.22 106.96 7.22 105.44 Z" />
</g>
</svg>
